<?xml version="1.0" encoding="utf-8"?><!-- Uploaded to: SVG Repo, www.svgrepo.com, Generator: SVG Repo Mixer Tools -->
<svg version="1.1" id="designs" xmlns="http://www.w3.org/2000/svg" xmlns:xlink="http://www.w3.org/1999/xlink" 
	 width="800px" height="800px" viewBox="0 0 32 32" xml:space="preserve">
<style type="text/css">
	.sketchy_een{fill:#111918;}
</style>
<path class="sketchy_een" d="M14.937,5.138c0-0.392,0.325-0.717,0.717-0.717c0.392,0,0.717,0.325,0.717,0.717
	s-0.325,0.717-0.717,0.717C15.263,5.855,14.937,5.53,14.937,5.138z M4.91,18.927c-0.003-0.025-0.007-0.051-0.01-0.076
	c-0.006-0.046-0.013-0.092-0.019-0.139C4.889,18.785,4.9,18.855,4.91,18.927z M27.184,17.906c-0.018,0.397-0.133,0.793-0.227,1.177
	c-0.091,0.366-0.203,0.726-0.277,1.094c-0.071,0.354-0.434,0.559-0.778,0.548c-0.063,0.041-0.13,0.069-0.203,0.087
	c0.006,0.642-0.008,1.283-0.017,1.925c-0.009,0.721-0.004,1.44-0.006,2.161c0,0.37-0.007,0.738-0.004,1.107
	c0.006,0.338,0.026,0.675,0.043,1.013c0.015,0.323,0.026,0.647,0.05,0.971c0.024,0.307,0.059,0.616,0.074,0.924
	c0.016,0.336-0.248,0.612-0.561,0.69c-0.005,0.005-0.007,0.013-0.012,0.018c-0.091,0.089-0.196,0.152-0.318,0.185
	c-0.584,0.079-1.163,0.159-1.752,0.177c-0.525,0.018-1.052,0.018-1.579,0.007c-0.436-0.011-0.802-0.357-0.802-0.802
	c0-0.03,0.014-0.057,0.018-0.087c-0.018-0.058-0.037-0.118-0.057-0.172c-0.055-0.148-0.111-0.296-0.166-0.444
	c-0.111-0.29-0.214-0.584-0.322-0.874c-0.18-0.484-0.367-0.967-0.558-1.447c-0.004,0.216-0.002,0.432-0.008,0.648
	c-0.017,0.71-0.07,1.423-0.046,2.135c0.013,0.392-0.338,0.721-0.721,0.721c-0.104,0-0.202-0.026-0.292-0.067
	c-0.081,0.033-0.168,0.053-0.259,0.053c-0.987-0.004-1.974-0.015-2.961-0.018c-0.727-0.004-1.455-0.002-2.181-0.002
	c-0.719,0-1.438,0.035-2.155,0.041c-0.714,0.006-1.427,0.002-2.141,0.024c-0.773,0.024-1.544,0.059-2.318,0.041
	c-0.281-0.008-0.523-0.172-0.642-0.409c-0.206-0.128-0.357-0.344-0.349-0.598c0.018-0.677-0.007-1.353-0.017-2.03
	c-0.011-0.664-0.028-1.329-0.041-1.993c-0.027-1.456-0.058-2.912-0.041-4.368c-0.084-0.06-0.154-0.134-0.203-0.225
	c-0.046-0.03-0.097-0.052-0.136-0.091c-0.164-0.166-0.213-0.351-0.238-0.577c-0.01-0.088-0.02-0.178-0.032-0.267
	c-0.016-0.111-0.031-0.222-0.047-0.334c-0.06-0.455-0.108-0.909-0.077-1.368c0.035-0.479,0.139-0.932,0.322-1.373
	c0.168-0.401,0.384-0.791,0.726-1.07c0.299-0.246,0.632-0.495,0.991-0.654c0.211-0.092,0.416-0.172,0.64-0.22
	c0.177-0.037,0.353-0.067,0.532-0.092c0.379-0.057,0.756-0.113,1.141-0.135c0.307-0.019,0.615-0.025,0.923-0.025
	c0.417,0,0.835,0.011,1.25,0.018c0.401,0.007,0.804,0.004,1.207,0.002c0.019,0,0.038,0,0.056,0
	c-0.033-0.365-0.066-0.729-0.091-1.096c-0.055-0.76-0.152-1.514-0.216-2.274c-0.061-0.73-0.079-1.464-0.079-2.196
	c0-0.381-0.006-0.76-0.007-1.141c0-0.368-0.007-0.736,0.028-1.104c0.037-0.407,0.089-0.812,0.155-1.214
	c0.028-0.177,0.055-0.357,0.109-0.529c0.067-0.214,0.159-0.423,0.264-0.621c0.399-0.738,1.044-1.327,1.839-1.604
	C14.913,2.049,15.218,2,15.526,2c0.176,0,0.353,0.016,0.53,0.047c0.179,0.03,0.348,0.092,0.521,0.148
	c0.203,0.067,0.407,0.129,0.599,0.227c0.327,0.163,0.628,0.368,0.887,0.629c0.216,0.214,0.39,0.466,0.543,0.728
	c0.399,0.684,0.416,1.49,0.414,2.263c-0.002,0.787-0.046,1.575-0.07,2.362c-0.024,0.78-0.096,1.558-0.17,2.335
	c-0.099,1.016-0.189,2.036-0.25,3.056c0.509,0.046,1.018,0.094,1.529,0.135c0.519,0.044,1.041,0.048,1.562,0.055
	c0.37,0.004,0.739,0.009,1.111,0.013c0.357,0.004,0.715,0.006,1.072,0.043c0.503,0.052,1.011,0.141,1.451,0.409
	c0.163,0.098,0.316,0.211,0.47,0.325c0.209,0.159,0.445,0.307,0.616,0.508c0.353,0.416,0.617,0.898,0.723,1.436
	C27.138,17.106,27.203,17.511,27.184,17.906z M6.406,17.225c-0.029,0.307-0.031,0.616,0.003,0.924
	c0.047,0.324,0.104,0.646,0.151,0.969c0.762,0.051,1.524,0.1,2.289,0.112c0.414,0.006,0.828,0.006,1.24,0.004c0.29,0,0.58,0,0.871,0
	c0.68,0.004,1.36,0.006,2.039,0.002c0.734-0.004,1.468-0.02,2.202-0.022c0.689-0.002,1.381,0.037,2.072,0.052
	c0.671,0.015,1.344,0.013,2.015,0.013c0.71-0.002,1.42-0.004,2.129,0.013c0.697,0.017,1.394,0.044,2.087,0.087
	c0.34,0.02,0.678,0.044,1.018,0.054c0.249,0.007,0.499,0,0.748-0.004c0.055-0.243,0.111-0.486,0.166-0.73
	c0.06-0.265,0.129-0.527,0.175-0.794c0.012-0.22,0.003-0.437-0.019-0.655c-0.032-0.191-0.073-0.376-0.135-0.56
	c-0.06-0.12-0.125-0.235-0.198-0.349c-0.106-0.118-0.22-0.219-0.347-0.318c-0.008-0.006-0.016-0.012-0.024-0.018
	c-0.167-0.126-0.336-0.247-0.522-0.343c-0.146-0.051-0.294-0.09-0.447-0.119c-0.404-0.041-0.806-0.039-1.213-0.042
	c-0.469-0.004-0.939-0.006-1.409-0.017c-1.055-0.026-2.106-0.074-3.157-0.161c-0.115,0.079-0.247,0.137-0.4,0.137
	c-0.379,0-0.765-0.335-0.736-0.734c0.017-0.233,0.018-0.468,0.033-0.701c0.085-1.431,0.24-2.856,0.346-4.287
	c0.057-0.769,0.074-1.542,0.096-2.314c0.021-0.741,0.053-1.488-0.014-2.229c-0.028-0.157-0.066-0.311-0.117-0.462
	c-0.072-0.142-0.158-0.279-0.252-0.408c-0.09-0.104-0.187-0.2-0.29-0.289c-0.127-0.088-0.262-0.164-0.401-0.23
	c-0.109-0.038-0.218-0.07-0.326-0.107c-0.126-0.043-0.251-0.084-0.38-0.111c-0.092-0.007-0.184-0.009-0.277-0.004
	c-0.128,0.028-0.251,0.065-0.374,0.108c-0.117,0.059-0.228,0.128-0.335,0.205c-0.119,0.1-0.231,0.206-0.333,0.324
	c-0.122,0.173-0.23,0.354-0.323,0.546c-0.136,0.371-0.214,0.77-0.271,1.161c-0.032,0.284-0.058,0.568-0.058,0.854
	c-0.002,0.364-0.004,0.728-0.004,1.092c0,0.678,0.006,1.357,0.054,2.033c0.105,1.457,0.318,2.9,0.468,4.351
	c0.004,0.041-0.018,0.083-0.024,0.126c0.05,0.102,0.083,0.214,0.083,0.334c0,0.425-0.357,0.793-0.786,0.787
	c-0.817-0.011-1.634-0.026-2.449-0.055c-0.754-0.028-1.509-0.08-2.258,0.006c-0.418,0.066-0.849,0.133-1.246,0.28
	c-0.224,0.108-0.436,0.244-0.637,0.392c-0.062,0.054-0.121,0.111-0.177,0.172c-0.064,0.097-0.12,0.198-0.17,0.303
	C6.509,16.806,6.446,17.012,6.406,17.225z M23.194,28.443c0.387,0.007,0.773-0.017,1.16-0.037c-0.012-0.147-0.021-0.295-0.03-0.442
	c-0.02-0.324-0.033-0.645-0.052-0.969c-0.041-0.714-0.035-1.429-0.035-2.144c-0.003-1.363-0.004-2.724-0.051-4.086
	c-0.402-0.024-0.802-0.051-1.204-0.077c-0.671-0.041-1.342-0.074-2.015-0.085c-0.708-0.013-1.418-0.011-2.126-0.02
	c-0.699-0.009-1.398-0.015-2.094-0.033c-0.704-0.02-1.407-0.039-2.109-0.037c-1.409,0.006-2.819,0.009-4.227,0.026
	c-0.699,0.007-1.398,0.03-2.096,0.035c-0.425,0.003-0.847-0.025-1.271-0.04C7.024,21.216,7,21.898,7,22.581
	c0,0.71,0.02,1.422,0.031,2.131c0.011,0.68,0.017,1.362,0.028,2.044c0.01,0.514,0.01,1.031,0.021,1.546
	c0.717,0.018,1.434,0.022,2.151,0.021c-0.025-0.255-0.044-0.51-0.057-0.763c-0.026-0.482-0.05-0.965-0.074-1.449
	c-0.054-1.054-0.105-2.107-0.157-3.161c-0.022-0.42,0.366-0.769,0.769-0.769c0.431,0,0.754,0.349,0.769,0.769
	c0.039,1.018,0.022,2.037,0.072,3.054c0.024,0.451,0.05,0.902,0.087,1.353c0.028,0.32,0.051,0.643,0.084,0.963
	c0.382,0.001,0.765,0.001,1.148-0.004c-0.031-1.527-0.116-3.055-0.185-4.58c-0.018-0.414,0.359-0.76,0.758-0.76
	c0.425,0,0.747,0.346,0.76,0.76c0.03,0.852,0.039,1.706,0.054,2.558c0.012,0.668,0.05,1.334,0.081,2.002
	c0.329-0.006,0.658-0.012,0.986-0.016c0.714-0.007,1.427-0.013,2.139-0.018c0.596-0.005,1.194,0.002,1.79-0.021
	c0.017-0.476,0.039-0.951,0.033-1.427c-0.011-0.93-0.026-1.858-0.035-2.788c-0.003-0.384,0.304-0.697,0.678-0.737
	c0.022-0.016,0.036-0.039,0.06-0.054c0.108-0.063,0.231-0.093,0.355-0.093c0.246,0,0.492,0.121,0.612,0.347
	c0.253,0.473,0.497,0.952,0.721,1.44c0.214,0.473,0.396,0.961,0.588,1.444c0.267,0.671,0.518,1.35,0.766,2.029
	C22.418,28.418,22.806,28.435,23.194,28.443z"/>
</svg>